# xmcd
#
# Track frame offsets:
#	150
#	14852
#	27827
#	40727
#	56777
#	70950
#	83025
#	94952
#	108000
#	119815
#	133802
#	148145
#	160650
#	173927
#	187577
#	201362
#	213750
#	227105
#	240305
#	254587
#	269447
#	282140
#
# Disc length: 3946 seconds
#
# Revision: 0
# Processed by: cddbd v1.5.2PL0 Copyright (c) Steve Scherf et al.
# Submitted via: EZCDAudioConverter 2.8.1.1
#
DISCID=430f6816
DTITLE=Booze and The Blues
DYEAR=1900
DGENRE=
TTITLE0=State Street Swingers - -  You Drink Too Much
TTITLE1=Charley Jordan - -  Cherry Wine Woman
TTITLE2=Memphis Minnie - -  Drunken Barrel House Blues
TTITLE3=The Mississippi Sheiks -  Bootleggers' Blues
TTITLE4=Barbecue Bob -  - Me and My Whiskey
TTITLE5=(Kid) Prince Moore - -  Bug Juice Blues
TTITLE6=Charlie Spand - -  Rock And Rye
TTITLE7=Memphis Jug Band - -  Rukus Juice And Chittlin'
TTITLE8=Merline Johnson -  - Bad Whiskey Blues
TTITLE9=Amos Easton - -  I Keep On Drinking (To Drive My Blues Away) - Part I
TTITLE10=Amos Easton - - I Keep On Drinking (To Drive My Blues Away) - Part II
TTITLE11=Little Bill Gaither - -  Moonshine By The Keg
TTITLE12=Lucille Bogan -  - Drinking Blues
TTITLE13=Peetie Wheatstraw - -  More Good Whiskey Blues
TTITLE14=Joshua White -  - Pigmeat And Whiskey Blues
TTITLE15=Casey Bill Weldon - -  Give Me Another Shot
TTITLE16=Big Bill Broonzy -  - When I Been Drinking
TTITLE17=Lewis Black - -  Corn Liquor Blues
TTITLE18=Sloppy Henry - -  Canned Heat Blues
TTITLE19=Big Bill Broonzy - -  When I Been Drinking
TTITLE20=Jack Newman -  - Blackberry Wine
TTITLE21=Rev. W.M. Mosley - -  Drinking Shine
EXTD=
EXTT0=
EXTT1=
EXTT2=
EXTT3=
EXTT4=
EXTT5=
EXTT6=
EXTT7=
EXTT8=
EXTT9=
EXTT10=
EXTT11=
EXTT12=
EXTT13=
EXTT14=
EXTT15=
EXTT16=
EXTT17=
EXTT18=
EXTT19=
EXTT20=
EXTT21=
PLAYORDER=
